<?xml version="1.0" encoding="UTF-8" standalone="no"?>
<svg
   width="16"
   height="16"
   fill="currentColor"
   class="bi bi-chat-square-text"
   viewBox="0 0 16 16"
   version="1.1"
   id="svg6"
   sodipodi:docname="logo.svg"
   inkscape:version="1.2 (dc2aeda, 2022-05-15)"
   xmlns:inkscape="http://www.inkscape.org/namespaces/inkscape"
   xmlns:sodipodi="http://sodipodi.sourceforge.net/DTD/sodipodi-0.dtd"
   xmlns="http://www.w3.org/2000/svg"
   xmlns:svg="http://www.w3.org/2000/svg">
  <defs
     id="defs10" />
  <sodipodi:namedview
     id="namedview8"
     pagecolor="#505050"
     bordercolor="#eeeeee"
     borderopacity="1"
     inkscape:showpageshadow="0"
     inkscape:pageopacity="0"
     inkscape:pagecheckerboard="0"
     inkscape:deskcolor="#505050"
     showgrid="false"
     inkscape:zoom="20.1"
     inkscape:cx="6.0199005"
     inkscape:cy="6.2686567"
     inkscape:window-width="1387"
     inkscape:window-height="942"
     inkscape:window-x="0"
     inkscape:window-y="25"
     inkscape:window-maximized="0"
     inkscape:current-layer="svg6" />
  <path
     d="m 14.378754,3.632995 a 0.91167942,0.97565487 0 0 1 0.689534,1.1658807 l -1.599591,7.6152063 a 0.91167942,0.97565487 0 0 1 -1.089432,0.73792 l -2.223707,-0.53495 a 1.8233588,1.9513097 0 0 0 -1.5831315,0.419153 l -2.196488,2.004603 -1.183547,-2.817726 A 1.8233588,1.9513097 0 0 0 3.929178,11.119193 L 1.7054708,10.584243 A 0.91167942,0.97565487 0 0 1 1.0159368,9.4183626 L 2.6155278,1.8031567 A 0.91167942,0.97565487 0 0 1 3.7049596,1.0652358 Z M 3.9049085,0.11333513 A 1.8233588,1.9513097 0 0 0 1.7260449,1.5891767 L 0.12645386,9.2043826 A 1.8233588,1.9513097 0 0 0 1.5055219,11.536144 l 2.2237072,0.534949 a 0.91167942,0.97565487 0 0 1 0.6316068,0.551945 l 1.183547,2.817726 a 0.91167942,0.97565487 0 0 0 1.4231726,0.342368 l 2.1964881,-2.004603 a 0.91167942,0.97565487 0 0 1 0.7915657,-0.209576 l 2.2237077,0.53495 A 1.8233588,1.9513097 0 0 0 14.35818,12.628061 L 15.957771,5.0128556 A 1.8233588,1.9513097 0 0 0 14.578703,2.6810943 Z"
     id="path2"
     style="fill:#000000;stroke-width:0.943125;stroke:none" />
  <g
     aria-label="p"
     id="text395"
     style="font-size:12px;font-family:'Apple Color Emoji';-inkscape-font-specification:'Apple Color Emoji';text-align:center;text-anchor:middle;fill:#000000;stroke:none" />
  <rect
     style="fill:#000000;fill-opacity:1;stroke:none;stroke-width:2.9182;stroke-opacity:1"
     id="rect2012"
     width="1.1116071"
     height="7.8039351"
     x="5.872087"
     y="7.5975428"
     ry="0.10005045" />
  <path
     style="color:#000000;fill:#000000;-inkscape-stroke:none;stroke:none"
     d="m 9.5136719,4.0410156 c -2.0011283,0 -3.6367188,1.6355905 -3.6367188,3.6367188 0,2.0011282 1.6355905,3.6347656 3.6367188,3.6347656 2.0011281,0 3.6347661,-1.6336374 3.6347661,-3.6347656 0,-2.0011283 -1.633638,-3.6367188 -3.6347661,-3.6367188 z m 0,1.1230469 c 1.3942421,0 2.5117191,1.1194302 2.5117191,2.5136719 0,1.3942416 -1.117477,2.5117186 -2.5117191,2.5117186 C 8.1194302,10.189453 7,9.071976 7,7.6777344 7,6.2834927 8.1194302,5.1640625 9.5136719,5.1640625 Z"
     id="path2016" />
  <path
     d="m 14.396342,3.6018006 a 0.91167942,0.97565487 0 0 1 0.689534,1.1658807 l -1.599591,7.6152057 a 0.91167942,0.97565487 0 0 1 -1.089432,0.73792 l -2.223707,-0.53495 A 1.8233588,1.9513097 0 0 0 8.5900155,13.00501 L 6.3935277,15.009613 5.2099807,12.191887 A 1.8233588,1.9513097 0 0 0 3.9467671,11.087998 L 1.7230599,10.553049 A 0.91167942,0.97565487 0 0 1 1.0335259,9.3871682 L 2.6331169,1.7719623 A 0.91167942,0.97565487 0 0 1 3.7225487,1.0340414 Z M 3.9224976,0.08214074 A 1.8233588,1.9513097 0 0 0 1.743634,1.5579823 L 0.14404296,9.1731882 A 1.8233588,1.9513097 0 0 0 1.523111,11.504949 l 2.2237072,0.534949 a 0.91167942,0.97565487 0 0 1 0.6316068,0.551945 l 1.1835467,2.817726 a 0.91167942,0.97565487 0 0 0 1.423173,0.342368 l 2.1964878,-2.004603 a 0.91167942,0.97565487 0 0 1 0.791566,-0.209576 l 2.2237065,0.53495 a 1.8233588,1.9513097 0 0 0 2.178863,-1.475842 L 15.975359,4.9816612 A 1.8233588,1.9513097 0 0 0 14.596291,2.6498999 Z"
     id="path2-9"
     style="fill:#000000;stroke:none;stroke-width:0.943125" />
  <g
     aria-label="p"
     id="text395-3"
     style="font-size:12px;font-family:'Apple Color Emoji';-inkscape-font-specification:'Apple Color Emoji';text-align:center;text-anchor:middle;fill:#000000;stroke:none"
     transform="translate(0.01758906,-0.03119439)" />
  <rect
     style="fill:#000000;fill-opacity:1;stroke:none;stroke-width:2.9182;stroke-opacity:1"
     id="rect2012-8"
     width="1.1116071"
     height="7.8039351"
     x="5.8896766"
     y="7.5663486"
     ry="0.10005045" />
  <path
     style="color:#000000;fill:#000000;stroke:none"
     d="m 9.5312605,4.0098212 c -2.0011278,0 -3.6367178,1.6355905 -3.6367178,3.6367188 0,2.0011282 1.63559,3.634765 3.6367178,3.634765 2.0011275,0 3.6347655,-1.6336368 3.6347655,-3.634765 0,-2.0011283 -1.633638,-3.6367188 -3.6347655,-3.6367188 z m 0,1.1230469 c 1.3942415,0 2.5117185,1.1194302 2.5117185,2.5136719 0,1.3942416 -1.117477,2.511719 -2.5117185,2.511719 -1.3942408,0 -2.5136718,-1.1174774 -2.5136718,-2.511719 0,-1.3942417 1.119431,-2.5136719 2.5136718,-2.5136719 z"
     id="path2016-0" />
</svg>
