<?xml version="1.0" encoding="UTF-8" standalone="no"?>
<!-- Created with Inkscape (http://www.inkscape.org/) -->

<svg
   width="107.12511mm"
   height="39.577415mm"
   viewBox="0 0 107.12511 39.577415"
   version="1.1"
   id="svg5"
   xml:space="preserve"
   inkscape:version="1.2 (dc2aeda, 2022-05-15)"
   sodipodi:docname="newLogo.svg"
   xmlns:inkscape="http://www.inkscape.org/namespaces/inkscape"
   xmlns:sodipodi="http://sodipodi.sourceforge.net/DTD/sodipodi-0.dtd"
   xmlns="http://www.w3.org/2000/svg"
   xmlns:svg="http://www.w3.org/2000/svg"><sodipodi:namedview
     id="namedview7"
     pagecolor="#505050"
     bordercolor="#eeeeee"
     borderopacity="1"
     inkscape:showpageshadow="0"
     inkscape:pageopacity="0"
     inkscape:pagecheckerboard="false"
     inkscape:deskcolor="#505050"
     inkscape:document-units="mm"
     showgrid="false"
     inkscape:zoom="1.6328077"
     inkscape:cx="214.66091"
     inkscape:cy="122.4884"
     inkscape:window-width="1390"
     inkscape:window-height="948"
     inkscape:window-x="0"
     inkscape:window-y="25"
     inkscape:window-maximized="0"
     inkscape:current-layer="layer1" /><defs
     id="defs2" /><g
     inkscape:label="Layer 1"
     inkscape:groupmode="layer"
     id="layer1"
     transform="translate(-0.1269838,-0.12295139)"><g
       style="fill:#ffffff"
       id="g2640"
       transform="matrix(2.4812438,0,0,2.4812438,-0.076629,-0.04038105)"><path
         d="m 14.378754,3.632995 a 0.91167942,0.97565487 0 0 1 0.689534,1.1658807 l -1.599591,7.6152063 a 0.91167942,0.97565487 0 0 1 -1.089432,0.73792 l -2.223707,-0.53495 a 1.8233588,1.9513097 0 0 0 -1.5831315,0.419153 l -2.196488,2.004603 -1.183547,-2.817726 A 1.8233588,1.9513097 0 0 0 3.929178,11.119193 L 1.7054708,10.584243 A 0.91167942,0.97565487 0 0 1 1.0159368,9.4183626 L 2.6155278,1.8031567 A 0.91167942,0.97565487 0 0 1 3.7049596,1.0652358 Z M 3.9049085,0.11333513 A 1.8233588,1.9513097 0 0 0 1.7260449,1.5891767 L 0.12645386,9.2043826 A 1.8233588,1.9513097 0 0 0 1.5055219,11.536144 l 2.2237072,0.534949 a 0.91167942,0.97565487 0 0 1 0.6316068,0.551945 l 1.183547,2.817726 a 0.91167942,0.97565487 0 0 0 1.4231726,0.342368 l 2.1964881,-2.004603 a 0.91167942,0.97565487 0 0 1 0.7915657,-0.209576 l 2.2237077,0.53495 A 1.8233588,1.9513097 0 0 0 14.35818,12.628061 L 15.957771,5.0128556 A 1.8233588,1.9513097 0 0 0 14.578703,2.6810943 Z"
         id="path2"
         style="fill:#ffffff;stroke:none;stroke-width:0.943125" /><g
         aria-label="p"
         id="text395"
         style="font-size:12px;font-family:'Apple Color Emoji';-inkscape-font-specification:'Apple Color Emoji';text-align:center;text-anchor:middle;fill:#ffffff;stroke:none" /><path
         id="rect2012"
         style="stroke-width:2.9182"
         d="m 5.9721375,7.5975428 h 0.9115061 c 0.055428,0 0.1000505,0.044623 0.1000505,0.1000504 v 7.6038338 c 0,0.05543 -0.044623,0.100051 -0.1000505,0.100051 H 5.9721375 c -0.055428,0 -0.1000505,-0.04462 -0.1000505,-0.100051 V 7.6975932 c 0,-0.055428 0.044623,-0.1000504 0.1000505,-0.1000504 z" /><path
         style="color:#000000;fill:#ffffff;stroke:none"
         d="m 9.5136719,4.0410156 c -2.0011283,0 -3.6367188,1.6355905 -3.6367188,3.6367188 0,2.0011282 1.6355905,3.6347656 3.6367188,3.6347656 2.0011281,0 3.6347661,-1.6336374 3.6347661,-3.6347656 0,-2.0011283 -1.633638,-3.6367188 -3.6347661,-3.6367188 z m 0,1.1230469 c 1.3942421,0 2.5117191,1.1194302 2.5117191,2.5136719 0,1.3942416 -1.117477,2.5117186 -2.5117191,2.5117186 C 8.1194302,10.189453 7,9.071976 7,7.6777344 7,6.2834927 8.1194302,5.1640625 9.5136719,5.1640625 Z"
         id="path2016" /><g
         aria-label="p"
         id="text395-3"
         style="font-size:12px;font-family:'Apple Color Emoji';-inkscape-font-specification:'Apple Color Emoji';text-align:center;text-anchor:middle;fill:#ffffff;stroke:none"
         transform="translate(0.01758906,-0.03119439)" /></g><g
       aria-label="chat"
       id="text3217"
       style="font-size:31.75px;font-family:Futura;-inkscape-font-specification:Futura;text-align:center;letter-spacing:-2.64583px;text-anchor:middle;fill:#ffffff;stroke-width:0.246327;stroke-linecap:round;stroke-linejoin:round"><path
         d="m 52.102407,27.751954 q -2.54,0 -4.54025,-1.143 -1.9685,-1.17475 -3.1115,-3.14325 -1.11125,-2.00025 -1.11125,-4.5085 0,-2.57175 1.11125,-4.572 1.11125,-2.00025 3.048,-3.1115 1.93675,-1.143 4.445,-1.143 1.87325,0 3.429,0.73025 1.55575,0.6985 2.794,2.12725 0.4445,0.508 0.3175,1.04775 -0.127,0.53975 -0.6985,0.9525 -0.4445,0.3175 -0.98425,0.22225 -0.53975,-0.127 -0.98425,-0.5715 -1.55575,-1.651 -3.8735,-1.651 -1.61925,0 -2.8575,0.762 -1.23825,0.73025 -1.93675,2.06375 -0.6985,1.3335 -0.6985,3.14325 0,1.7145 0.6985,3.048 0.73025,1.3335 2.00025,2.12725 1.27,0.762 2.95275,0.762 1.11125,0 1.93675,-0.254 0.85725,-0.28575 1.55575,-0.85725 0.508,-0.41275 1.04775,-0.4445 0.53975,-0.0635 0.9525,0.28575 0.53975,0.4445 0.60325,1.016 0.0635,0.53975 -0.381,0.98425 -2.286,2.12725 -5.715,2.12725 z"
         style="font-weight:bold;font-family:Comfortaa;-inkscape-font-specification:'Comfortaa Bold'"
         id="path6173" /><path
         d="m 62.283572,21.306704 q -0.6985,0 -1.17475,-0.4445 -0.4445,-0.47625 -0.4445,-1.17475 V 4.4474542 q 0,-0.73025 0.4445,-1.17475 0.47625,-0.4445 1.17475,-0.4445 0.73025,0 1.17475,0.4445 0.4445,0.4445 0.4445,1.17475 V 19.687454 q 0,0.6985 -0.4445,1.17475 -0.4445,0.4445 -1.17475,0.4445 z m 13.04925,6.35 q -0.6985,0 -1.17475,-0.4445 -0.4445,-0.47625 -0.4445,-1.17475 v -7.8105 q 0,-1.80975 -0.66675,-2.95275 -0.66675,-1.143 -1.80975,-1.68275 -1.11125,-0.5715 -2.57175,-0.5715 -1.3335,0 -2.413,0.53975 -1.0795,0.53975 -1.7145,1.4605 -0.635,0.889 -0.635,2.06375 h -2.00025 q 0,-2.00025 0.9525,-3.556 0.98425,-1.5875 2.667,-2.50825 1.68275,-0.92075 3.77825,-0.92075 2.19075,0 3.90525,0.9525 1.74625,0.92075 2.7305,2.7305 1.016,1.80975 1.016,4.445 v 7.8105 q 0,0.6985 -0.47625,1.17475 -0.4445,0.4445 -1.143,0.4445 z m -13.04925,0 q -0.6985,0 -1.17475,-0.4445 -0.4445,-0.47625 -0.4445,-1.17475 v -14.1605 q 0,-0.73025 0.4445,-1.17475 0.47625,-0.4445 1.17475,-0.4445 0.73025,0 1.17475,0.4445 0.4445,0.4445 0.4445,1.17475 v 14.1605 q 0,0.6985 -0.4445,1.17475 -0.4445,0.4445 -1.17475,0.4445 z"
         style="font-weight:bold;font-family:Comfortaa;-inkscape-font-specification:'Comfortaa Bold'"
         id="path6175" /><path
         d="m 86.942699,27.751954 q -2.31775,0 -4.15925,-1.143 -1.8415,-1.17475 -2.921,-3.14325 -1.04775,-2.00025 -1.04775,-4.5085 0,-2.50825 1.143,-4.5085 1.17475,-2.00025 3.14325,-3.14325 2.00025,-1.17475 4.47675,-1.17475 2.4765,0 4.445,1.17475 1.9685,1.143 3.1115,3.14325 1.17475,2.00025 1.17475,4.5085 h -1.23825 q 0,2.50825 -1.0795,4.5085 -1.04775,1.9685 -2.88925,3.14325 -1.8415,1.143 -4.15925,1.143 z m 0.635,-2.8575 q 1.61925,0 2.88925,-0.762 1.27,-0.79375 2.00025,-2.12725 0.73025,-1.36525 0.73025,-3.048 0,-1.7145 -0.73025,-3.048 -0.73025,-1.36525 -2.00025,-2.12725 -1.27,-0.79375 -2.88925,-0.79375 -1.5875,0 -2.88925,0.79375 -1.27,0.762 -2.032,2.12725 -0.73025,1.3335 -0.73025,3.048 0,1.68275 0.73025,3.048 0.762,1.3335 2.032,2.12725 1.30175,0.762 2.88925,0.762 z m 7.112,2.76225 q -0.6985,0 -1.17475,-0.4445 -0.4445,-0.47625 -0.4445,-1.17475 v -4.85775 l 0.60325,-3.3655 2.63525,1.143 v 7.08025 q 0,0.6985 -0.47625,1.17475 -0.4445,0.4445 -1.143,0.4445 z"
         style="font-weight:bold;font-family:Comfortaa;-inkscape-font-specification:'Comfortaa Bold'"
         id="path6177" /><path
         d="m 104.80735,27.624954 q -1.5875,0 -2.8575,-0.79375 -1.27,-0.8255 -2.000254,-2.2225 -0.73025,-1.397 -0.73025,-3.14325 V 6.3207042 q 0,-0.6985 0.4445,-1.143 0.444504,-0.4445 1.143004,-0.4445 0.6985,0 1.143,0.4445 0.4445,0.4445 0.4445,1.143 V 21.465454 q 0,1.27 0.6985,2.12725 0.6985,0.85725 1.7145,0.85725 h 1.0795 q 0.5715,0 0.9525,0.4445 0.41275,0.4445 0.41275,1.143 0,0.6985 -0.53975,1.143 -0.508,0.4445 -1.3335,0.4445 z m -7.048504,-14.00175 q -0.66675,0 -1.0795,-0.381 -0.41275,-0.381 -0.41275,-0.9525 0,-0.635 0.41275,-1.016 0.41275,-0.381 1.0795,-0.381 h 7.334254 q 0.66675,0 1.0795,0.381 0.41275,0.381 0.41275,1.016 0,0.5715 -0.41275,0.9525 -0.41275,0.381 -1.0795,0.381 z"
         style="font-weight:bold;font-family:Comfortaa;-inkscape-font-specification:'Comfortaa Bold'"
         id="path6179" /></g></g></svg>
